# xmcd CD database file
#
# Track frame offsets:
#	150
#	17972
#	29245
#	40457
#	66292
#	83540
#	97850
#	127840
#	141460
#	162382
#	171725
#	181892
#	194620
#	214690
#	241175
#	252997
#	263852
#	273912
#	294722
#	307962
#
# Disc length: 4444 seconds
#
# Revision: 0
# Processed by: cddbd v1.4PL0 Copyright (c) Steve Scherf et al.
# Submitted via: CDex 1.50
#
DISCID=2e115a14
DTITLE=Chico Hamilton Quintet - With Strings Attached/The Three Faces of Chico
DYEAR=1959
DGENRE=Jazz
TTITLE0=Something to Live For
TTITLE1=Andante
TTITLE2=Speak Low
TTITLE3=Pottville, USA
TTITLE4=Don's Delight
TTITLE5=Strange
TTITLE6=Modes
TTITLE7=Fair Weather
TTITLE8=Close Your Eyes
TTITLE9=Ev'rything I've Got
TTITLE10=Miss Movement
TTITLE11=She's Funny That Way
TTITLE12=Trinkets
TTITLE13=More Than You Know
TTITLE14=The Best Things in Life Are Free
TTITLE15=Where Or When
TTITLE16=Happy Little Dance
TTITLE17=Newport News
TTITLE18=I Don't Know Why (I Just Do)
TTITLE19=No Speak No English, Man
EXTD=YEAR: 1959
EXTT0=
EXTT1=
EXTT2=
EXTT3=
EXTT4=
EXTT5=
EXTT6=
EXTT7=
EXTT8=
EXTT9=
EXTT10=
EXTT11=
EXTT12=
EXTT13=
EXTT14=
EXTT15=
EXTT16=
EXTT17=
EXTT18=
EXTT19=
PLAYORDER=
